#!OML:ASF F:\VICON\USERDATA\INSTALL\rory3\rory3.ASF
:FULLY-SPECIFIED
:DEGREES
136
root 0.616275 17.4749 41.2322 1.9085 1.61223 0.209068
lowerback 17.0003 0.316851 -1.11825
upperback 1.99306 0.107977 -1.3017
thorax -7.39567 0.0667878 -0.782842
lowerneck -4.89238 0.0513337 -0.623434
upperneck -8.58391 0.185747 1.53634
head -1.85214 0.0879645 0.582887
rclavicle -7.65321e-015 -1.43125e-014
rhumerus -41.8304 18.3387 -88.5594
rradius 92.5952
rwrist -1.61605
rhand -39.1493 35.8308
rfingers 7.12502
rthumb -12.1476 6.20352
lclavicle -7.65321e-015 -1.43125e-014
lhumerus -40.2567 -10.0374 88.1891
lradius 112.493
lwrist 33.9266
lhand -34.0729 11.1785
lfingers 7.12502
lthumb -7.24989 41.0343
rfemur 5.09056 -2.73734 21.5302
rtibia 89.9481
rfoot 31.4292 -15.1671
rtoes 26.9274
lfemur -24.447 -5.23333 -21.5955
ltibia 35.2324
lfoot -7.45911 -5.18657
ltoes -14.4202
137
root 0.643876 17.3956 41.6604 1.58981 2.29902 2.88797
lowerback 18.2952 0.239913 -3.34489
upperback 2.29217 -0.510266 -1.96463
thorax -7.77224 -0.17285 -0.0883635
lowerneck -5.62708 -0.182618 -1.21921
upperneck -9.07865 -0.0731982 1.92693
head -1.88638 -0.0276267 0.80694
rclavicle 1.68967e-015 6.36111e-015
rhumerus -42.1103 16.5336 -87.98
rradius 91.3826
rwrist 0.00837637
rhand -39.424 35.9289
rfingers 7.12502
rthumb -12.4125 6.31739
lclavicle 1.68967e-015 6.36111e-015
lhumerus -37.0648 -11.2579 88.0447
lradius 112.305
lwrist 33.6883
lhand -34.0079 12.0391
lfingers 7.12502
lthumb -7.18718 41.8971
rfemur 2.69196 -4.36145 16.9846
rtibia 94.2337
rfoot 31.9247 -13.8949
rtoes 25.6909
lfemur -23.3011 -6.48577 -24.9187
ltibia 37.227
lfoot -9.58419 -3.98468
ltoes -13.4857
138
root 0.662618 17.328 42.2578 0.786757 2.24124 7.60975
lowerback 17.5611 0.663743 -7.99504
upperback 3.18082 -0.831169 -3.24101
thorax -6.35096 -0.269757 1.24208
lowerneck -5.92023 -0.345807 -1.32634
upperneck -9.70959 -0.260663 2.18015
head -2.03948 -0.122157 0.908394
rclavicle -4.96962e-015 5.40694e-014
rhumerus -42.7083 14.6018 -87.6445
rradius 90.2831
rwrist 1.80221
rhand -39.7893 35.524
rfingers 7.12502
rthumb -12.7646 5.93421
lclavicle -4.96962e-015 5.40694e-014
lhumerus -33.9332 -12.562 87.4752
lradius 112.027
lwrist 33.6854
lhand -34.4615 10.8788
lfingers 7.12502
lthumb -7.62508 40.7213
rfemur 2.29243 -5.05802 9.50251
rtibia 97.5063
rfoot 32.051 -10.6476
rtoes 26.3034
lfemur -20.013 -7.1607 -30.6535
ltibia 38.2394
lfoot -12.4597 -2.64309
ltoes -15.1933
139
root 0.642667 17.2836 42.6501 1.8543 1.4624 5.81829
lowerback 17.4456 0.701828 -6.67116
upperback 2.75725 -0.517213 -2.70587
thorax -6.78044 -0.121831 1.0001
lowerneck -5.50051 -0.38025 -1.31673
upperneck -10.6631 -0.293541 2.2365
head -2.42658 -0.144726 0.934672
rclavicle -8.24956e-015 3.1408e-014
rhumerus -43.5901 12.8161 -87.3433
rradius 89.0027
rwrist 3.45413
rhand -39.9932 35.9326
rfingers 7.12502
rthumb -12.9612 6.35515
lclavicle -8.24956e-015 3.1408e-014
lhumerus -30.9711 -13.8182 86.8171
lradius 111.609
lwrist 33.5965
lhand -34.5507 11.1779
lfingers 7.12502
lthumb -7.71117 41.0173
rfemur -3.52022 -5.46217 11.5706
rtibia 101.573
rfoot 33.1738 -10.2444
rtoes 27.1628
lfemur -20.31 -6.99639 -28.46
ltibia 38.9919
lfoot -13.7037 -2.0075
ltoes -18.3494
140
root 0.664583 17.2373 43.0834 2.7712 1.41568 5.18386
lowerback 16.8211 0.420952 -5.88245
upperback 2.62272 -0.680487 -2.49796
thorax -6.58173 -0.220202 0.815645
lowerneck -5.43142 -0.221748 -1.42905
upperneck -11.1928 -0.0643348 2.31366
head -2.62169 -0.0297246 0.982475
rclavicle -7.85199e-015 1.11319e-014
rhumerus -44.1875 11.3013 -86.9217
rradius 87.4775
rwrist 4.8456
rhand -40.1775 37.0861
rfingers 7.12502
rthumb -13.1389 7.52001
lclavicle -7.85199e-015 1.11319e-014
lhumerus -27.9902 -14.6687 86.211
lradius 111.163
lwrist 33.0875
lhand -34.6989 11.5388
lfingers 7.12502
lthumb -7.8542 41.3729
rfemur -8.31878 -6.30444 12.0004
rtibia 104.84
rfoot 33.5605 -9.01605
rtoes 26.9272
lfemur -19.9573 -7.50064 -27.8161
ltibia 39.5391
lfoot -14.7061 -1.31343
ltoes -22.3864
141
root 0.685424 17.2122 43.5254 3.27627 -0.0640146 4.84867
lowerback 16.7599 0.708065 -5.71394
upperback 2.29831 -0.28146 -2.39878
thorax -6.92099 -0.0185043 0.736044
lowerneck -5.44573 0.0409428 -1.53929
upperneck -11.1414 0.293583 2.349
head -2.61044 0.152163 1.0103
rclavicle -4.67144e-015 3.73715e-014
rhumerus -45.3109 9.90976 -86.5923
rradius 86.4945
rwrist 6.00383
rhand -40.1946 37.3263
rfingers 7.12502
rthumb -13.1554 7.76126
lclavicle -4.67144e-015 3.73715e-014
lhumerus -25.7568 -15.3021 85.7853
lradius 110.843
lwrist 32.5316
lhand -34.3042 11.5747
lfingers 7.12502
lthumb -7.47324 41.4227
rfemur -12.8045 -5.27209 12.4275
rtibia 107.481
rfoot 33.6384 -8.77069
rtoes 28.3898
lfemur -19.2202 -6.7207 -27.6709
ltibia 40.3131
lfoot -15.8963 -0.780543
ltoes -23.249
142
root 0.697496 17.2013 43.9659 3.31583 -0.519313 4.55841
lowerback 16.911 0.620262 -5.42587
upperback 2.33978 -0.346371 -2.28433
thorax -6.95641 -0.0560844 0.710674
lowerneck -5.2299 0.27381 -1.40684
upperneck -11.622 0.586552 2.10189
head -2.81519 0.29643 0.909406
rclavicle -1.00386e-014 -1.70955e-014
rhumerus -46.3008 8.49184 -86.2847
rradius 86.4981
rwrist 6.67036
rhand -39.5219 36.1019
rfingers 7.12502
rthumb -12.5068 6.49614
lclavicle -1.00386e-014 -1.70955e-014
lhumerus -23.5933 -15.6668 85.2539
lradius 110.844
lwrist 32.0398
lhand -34.1874 11.7424
lfingers 7.12502
lthumb -7.36043 41.5944
rfemur -16.3346 -5.2665 12.9042
rtibia 109.338
rfoot 33.3965 -8.78934
rtoes 30.1091
lfemur -17.6319 -6.57229 -27.5662
ltibia 40.4352
lfoot -16.6444 -0.566536
ltoes -23.8516
143
root 0.735275 17.206 44.4587 3.44842 -0.888691 4.3755
lowerback 15.9483 0.333177 -4.72285
upperback 2.67538 -0.521053 -2.37351
thorax -6.0676 -0.179997 0.261831
lowerneck -5.2308 0.403246 -1.25196
upperneck -12.0207 0.749829 1.97948
head -2.95244 0.372875 0.843967
rclavicle 1.78906e-015 -8.34896e-015
rhumerus -46.5127 7.87005 -86.2774
rradius 85.5491
rwrist 6.22571
rhand -39.2822 35.7537
rfingers 7.12502
rthumb -12.2758 6.134
lclavicle 1.78906e-015 -8.34896e-015
lhumerus -21.3048 -15.8317 84.4963
lradius 111.052
lwrist 31.5625
lhand -34.4594 12.7172
lfingers 7.12502
lthumb -7.62297 42.5598
rfemur -19.1447 -4.89352 13.2534
rtibia 110.301
rfoot 32.4949 -7.86018
rtoes 21.3856
lfemur -15.4908 -6.53884 -27.807
ltibia 40.0758
lfoot -17.3707 -0.341124
ltoes -24.5267
144
root 0.729288 17.2343 44.9439 3.38973 -1.18743 5.00606
lowerback 15.8332 0.166574 -5.45683
upperback 2.75573 -0.863127 -2.54722
thorax -5.89679 -0.338381 0.561158
lowerneck -5.49929 0.69872 -1.03385
upperneck -11.8788 1.12116 1.77036
head -2.85905 0.555108 0.734972
rclavicle 9.44227e-015 3.1408e-014
rhumerus -47.3901 7.17947 -86.4087
rradius 85.673
rwrist 5.57983
rhand -39.0194 35.6352
rfingers 7.12502
rthumb -12.0224 6.0005
lclavicle 9.44227e-015 3.1408e-014
lhumerus -19.5641 -15.771 83.7863
lradius 111.253
lwrist 30.8953
lhand -34.2293 12.3204
lfingers 7.12502
lthumb -7.40094 42.1709
rfemur -22.1243 -4.96513 12.7424
rtibia 110.995
rfoot 31.6247 -6.8278
rtoes 20.4811
lfemur -13.0044 -6.49333 -28.7214
ltibia 38.9906
lfoot -17.5258 -0.267746
ltoes -25.0807
145
root 0.713872 17.2751 45.3904 3.75742 -2.18151 5.50749
lowerback 16.6522 0.252984 -6.50177
upperback 2.01126 -1.04434 -2.53743
thorax -7.11921 -0.360175 1.19951
lowerneck -5.30349 1.19795 -0.688338
upperneck -11.4962 1.71292 1.0369
head -2.7598 0.854188 0.434025
rclavicle -1.3418e-014 1.78906e-014
rhumerus -48.847 7.22125 -86.5858
rradius 85.6932
rwrist 4.90361
rhand -39.0386 35.5899
rfingers 7.12502
rthumb -12.0409 5.95627
lclavicle -1.3418e-014 1.78906e-014
lhumerus -19.1375 -15.4238 83.5801
lradius 111.823
lwrist 30.3133
lhand -33.6966 10.6959
lfingers 7.12502
lthumb -6.8867 40.5639
rfemur -26.624 -4.39235 12.6021
rtibia 111.668
rfoot 31.4409 -6.25234
rtoes 20.8939
lfemur -11.3809 -5.74981 -29.3982
ltibia 37.993
lfoot -17.0206 -0.263629
ltoes -25.1136
146
root 0.720601 17.3448 45.9299 2.89252 -2.54963 6.5179
lowerback 16.3074 0.102443 -7.44917
upperback 2.63582 -1.35472 -2.77716
thorax -6.21777 -0.529569 1.5394
lowerneck -4.76736 1.2254 -0.915808
upperneck -12.3473 1.76717 1.15298
head -3.15242 0.882822 0.506409
rclavicle -6.26172e-015 7.15625e-015
rhumerus -49.1631 7.32585 -86.6963
rradius 85.7075
rwrist 4.11672
rhand -39.3893 35.7612
rfingers 7.12502
rthumb -12.379 6.14767
lclavicle -6.26172e-015 7.15625e-015
lhumerus -17.7921 -14.9749 83.1495
lradius 112.426
lwrist 30.0317
lhand -33.7354 9.27862
lfingers 7.12502
lthumb -6.92413 39.1454
rfemur -27.8161 -4.10326 11.5739
rtibia 110.953
rfoot 30.1853 -4.66628
rtoes 19.7712
lfemur -7.72314 -5.18475 -30.8841
ltibia 36.5495
lfoot -16.1201 -0.472172
ltoes -25.2756
147
root 0.686123 17.3764 46.3422 2.99389 -3.29898 6.12634
lowerback 17.2145 0.0977011 -7.81697
upperback 2.13467 -1.52844 -2.40682
thorax -7.22315 -0.555077 2.19277
lowerneck -4.35272 1.30784 -1.70668
upperneck -12.3674 1.93874 1.74262
head -3.2571 0.98175 0.830048
rclavicle 9.83984e-015 9.54166e-015
rhumerus -50.4247 7.64398 -86.8761
rradius 86.0577
rwrist 3.42438
rhand -39.8622 35.64
rfingers 7.12502
rthumb -12.8349 6.05458
lclavicle 9.83984e-015 9.54166e-015
lhumerus -17.5105 -14.5064 83.023
lradius 113.139
lwrist 30.1474
lhand -33.987 9.95145
lfingers 7.12502
lthumb -7.16705 39.8101
rfemur -31.8239 -3.36309 13.0039
rtibia 110.735
rfoot 30.1665 -4.3777
rtoes 17.0433
lfemur -6.02996 -4.42846 -30.4316
ltibia 35.2812
lfoot -14.2978 -0.936547
ltoes -27.7025
148
root 0.71738 17.4669 46.8558 3.87222 -1.56056 6.44846
lowerback 16.434 -1.05759 -7.15742
upperback 1.69209 -2.87644 -2.40474
thorax -7.17866 -1.21683 2.10709
lowerneck -3.7042 1.5467 -1.88595
upperneck -12.4686 2.23442 1.56549
head -3.41755 1.13824 0.794694
rclavicle 1.45113e-014 -2.46493e-014
rhumerus -51.7756 7.7669 -86.9811
rradius 86.5842
rwrist 3.00018
rhand -39.9841 35.5427
rfingers 7.12502
rthumb -12.9525 5.96469
lclavicle 1.45113e-014 -2.46493e-014
lhumerus -17.2737 -14.321 82.7962
lradius 113.884
lwrist 30.6645
lhand -34.0279 14.2715
lfingers 7.12502
lthumb -7.20651 44.1288
rfemur -33.9991 -4.97241 12.7585
rtibia 109.083
rfoot 29.135 -2.94452
rtoes 11.9234
lfemur -4.10972 -5.61072 -30.9132
ltibia 33.5568
lfoot -12.5341 -1.7858
ltoes -30.2311
149
root 0.702616 17.5582 47.3947 3.72888 -1.35081 6.83562
lowerback 15.6402 -1.39789 -7.58889
upperback 1.81107 -3.30658 -2.30283
thorax -6.54377 -1.43976 2.51334
lowerneck -3.09605 1.67274 -2.17743
upperneck -12.8028 2.37552 1.3728
head -3.65306 1.22496 0.775197
rclavicle 4.53229e-014 2.18663e-014
rhumerus -52.8242 7.69314 -86.8733
rradius 87.1544
rwrist 2.82144
rhand -39.8948 35.9123
rfingers 7.12502
rthumb -12.8663 6.32885
lclavicle 4.53229e-014 2.18663e-014
lhumerus -16.655 -14.2194 82.6513
lradius 114.666
lwrist 31.6713
lhand -33.7718 11.1732
lfingers 7.12502
lthumb -6.95926 41.0388
rfemur -35.4297 -4.77143 12.7612
rtibia 107.196
rfoot 27.5435 -2.45683
rtoes 11.896
lfemur -1.39512 -5.38048 -31.3734
ltibia 31.9811
lfoot -10.4544 -2.71861
ltoes -31.5828
150
root 0.680392 17.6482 47.9053 3.68314 -1.11522 7.3962
lowerback 15.6774 -1.70175 -8.29324
upperback 1.54224 -3.84446 -2.22597
thorax -6.75246 -1.6653 3.10127
lowerneck -2.74458 1.84308 -2.12217
upperneck -12.7048 2.55145 0.941178
head -3.67877 1.32287 0.616538
rclavicle -5.42682e-014 -1.47101e-014
rhumerus -54.1594 7.83667 -86.8991
rradius 87.6112
rwrist 2.48727
rhand -39.7832 35.9269
rfingers 7.12502
rthumb -12.7587 6.33674
lclavicle -5.42682e-014 -1.47101e-014
lhumerus -16.4774 -14.036 82.6521
lradius 115.411
lwrist 32.9506
lhand -33.1733 10.0258
lfingers 7.12502
lthumb -6.38148 39.9097
rfemur -37.2489 -4.68337 12.6857
rtibia 105.054
rfoot 26.5087 -1.75741
rtoes 10.6756
lfemur 1.16386 -5.13669 -31.8618
ltibia 29.828
lfoot -7.36878 -3.94352
ltoes -31.1307
